<svg width="120" height="25" xmlns="http://www.w3.org/2000/svg">
    <g id="logo-colored" viewBox="0 0 112.095 24.926">
        <g transform="translate(3897 -975)">
            <path d="M24.929,17.346H8.385V8.357H5.839V18.585a1.261,1.261,0,0,0,1.273,1.239h14.5l-2.995,2.624H2.545V7.58H19.09a1.3,1.3,0,0,0,.848-.316l5.839-5.1A1.232,1.232,0,0,0,26.127.8a1.3,1.3,0,0,0-1.2-.8H7.112A1.261,1.261,0,0,0,5.839,1.239V4.324H8.385V2.478H21.61L18.616,5.1H1.273A1.261,1.261,0,0,0,0,6.341V23.687a1.261,1.261,0,0,0,1.273,1.239H19.09a1.3,1.3,0,0,0,.848-.316l5.839-5.1a1.232,1.232,0,0,0,.349-1.36A1.3,1.3,0,0,0,24.929,17.346Z" transform="translate(-3897 975)" fill="#fe4350"></path>
            <path d="M14.332,6.783c0-9.044,13.833-9.044,13.833,0a6.616,6.616,0,0,1-6.929,6.808A6.589,6.589,0,0,1,14.332,6.783Zm3.516,0a3.389,3.389,0,1,0,6.767,0,3.386,3.386,0,1,0-6.767,0ZM0,6.752C0,2.31,3.45.089,6.9.089c2.787,0,5.806,1.48,6.337,4.957H9.852A2.849,2.849,0,0,0,6.9,3.115,3.314,3.314,0,0,0,3.55,6.752,3.436,3.436,0,0,0,6.9,10.389a2.874,2.874,0,0,0,3.02-2.124H13.3c-.5,3.7-3.516,5.15-6.4,5.15H6.827A6.515,6.515,0,0,1,0,6.752Zm77.062,6.566L74.474,9.2h-.1l-2.588,4.119H68.171V12.8l4.345-6.438L68.636.734V.219h3.516l2.19,3.412h.1L76.7.219h3.45V.734L76.3,6.366,80.678,12.8v.515Zm-32.078,0V.219h5.075c8.79.064,8.79,13.068,0,13.1Zm3.45-3.057h1.625c4.279,0,4.279-6.985,0-6.985H48.434Zm-9.221,3.057V7.493l-2.853,2.929h-.4L33.107,7.493v5.826H29.591V.185h1.261l5.275,5.666L41.5.185h1.228V13.318Zm18.907-.031V.219h8.426V3.212H61.57V5.079h4.577V8.04H61.537v2.285h5.175v2.962Z" transform="translate(-3865.583 980.496)" fill="#0c3756"></path>
        </g>
    </g>
</svg>
